<?xml version="1.0" encoding="utf-8"?>
<!-- Generator: Adobe Illustrator 16.0.4, SVG Export Plug-In . SVG Version: 6.00 Build 0)  -->
<!DOCTYPE svg PUBLIC "-//W3C//DTD SVG 1.1//EN" "http://www.w3.org/Graphics/SVG/1.1/DTD/svg11.dtd">
<svg version="1.1" id="Layer_1" xmlns="http://www.w3.org/2000/svg" xmlns:xlink="http://www.w3.org/1999/xlink" x="0px" y="0px"
	 width="1015px" height="165px" viewBox="0 0 1015 165" enable-background="new 0 0 1015 165" xml:space="preserve">
<rect fill="#00AAFF" width="1015" height="165"/>
<text transform="matrix(1 0 0 1 80 84.5557)"><tspan x="0" y="0" fill="#FFFFFF" font-family="'ArialNarrow'" font-size="36">Cuttz FrameWork</tspan><tspan x="0" y="21" fill="#FFFFFF" font-family="'Times-Italic'" font-size="14">Create Smart Websites.. The Smarter Way</tspan></text>
<g>
	<g>
		<line fill="none" stroke="#FFFFFF" stroke-miterlimit="10" x1="79.5" y1="-19" x2="79.5" y2="-16"/>
		<line fill="none" stroke="#FFFFFF" stroke-miterlimit="10" stroke-dasharray="6,6" x1="79.5" y1="-10" x2="79.5" y2="240"/>
		<line fill="none" stroke="#FFFFFF" stroke-miterlimit="10" x1="79.5" y1="243" x2="79.5" y2="246"/>
	</g>
</g>
<g>
	<g>
		<g>
			<line fill="none" stroke="#FFFFFF" stroke-miterlimit="10" x1="6" y1="139.5" x2="1009" y2="139.5"/>
			<g>
				<polygon fill="#FFFFFF" points="9.13,143.203 7.557,139.5 9.13,135.797 0.352,139.5 				"/>
			</g>
			<g>
				<polygon fill="#FFFFFF" points="1006.573,143.203 1008.146,139.5 1006.573,135.797 1015.352,139.5 				"/>
			</g>
		</g>
	</g>
	<g>
		<circle fill="#FFFFFF" cx="167.852" cy="140.066" r="15.172"/>
		<g>
			<path d="M169.17,143.479h-0.879v-5.601c-0.211,0.202-0.489,0.403-0.832,0.605c-0.344,0.202-0.652,0.354-0.926,0.454v-0.85
				c0.492-0.231,0.922-0.511,1.289-0.84c0.368-0.329,0.629-0.647,0.781-0.957h0.566V143.479z"/>
		</g>
	</g>
</g>
<g>
	<g>
		<g>
			<line fill="none" stroke="#FFFFFF" stroke-miterlimit="10" x1="6" y1="31.5" x2="74" y2="31.5"/>
			<g>
				<polygon fill="#FFFFFF" points="9.162,35.486 7.588,31.783 9.162,28.08 0.383,31.783 				"/>
			</g>
			<g>
				<polygon fill="#FFFFFF" points="71.105,35.486 72.678,31.783 71.105,28.08 79.883,31.783 				"/>
			</g>
		</g>
	</g>
	<g>
		<circle fill="#FFFFFF" cx="40.133" cy="31.783" r="15.172"/>
		<g>
			<path d="M37.79,33l0.879-0.117c0.102,0.498,0.272,0.856,0.516,1.077c0.242,0.219,0.538,0.329,0.886,0.329
				c0.414,0,0.763-0.144,1.048-0.43c0.284-0.286,0.427-0.642,0.427-1.064c0-0.403-0.132-0.736-0.396-0.999
				c-0.264-0.262-0.599-0.393-1.006-0.393c-0.166,0-0.372,0.032-0.62,0.098l0.098-0.771c0.059,0.007,0.106,0.01,0.142,0.01
				c0.375,0,0.712-0.098,1.011-0.293c0.3-0.195,0.449-0.496,0.449-0.903c0-0.322-0.108-0.589-0.327-0.801
				c-0.218-0.212-0.499-0.317-0.845-0.317c-0.342,0-0.626,0.107-0.854,0.322c-0.228,0.215-0.374,0.537-0.439,0.967l-0.879-0.156
				c0.107-0.589,0.352-1.046,0.732-1.369c0.381-0.324,0.854-0.486,1.421-0.486c0.391,0,0.751,0.084,1.079,0.252
				c0.329,0.167,0.58,0.396,0.755,0.686c0.174,0.29,0.261,0.598,0.261,0.923c0,0.31-0.083,0.591-0.249,0.845
				s-0.411,0.456-0.737,0.605c0.424,0.098,0.752,0.301,0.986,0.607c0.234,0.309,0.352,0.693,0.352,1.155
				c0,0.625-0.228,1.155-0.684,1.589c-0.455,0.436-1.031,0.652-1.729,0.652c-0.628,0-1.149-0.188-1.564-0.562
				S37.848,33.595,37.79,33z"/>
		</g>
	</g>
</g>
</svg>
